<?xml version="1.0" encoding="UTF-8" standalone="no"?>
<!DOCTYPE svg PUBLIC "-//W3C//DTD SVG 1.1//EN" "http://www.w3.org/Graphics/SVG/1.1/DTD/svg11.dtd">
<svg width="100%" height="100%" viewBox="0 0 2500 741" version="1.1" xmlns="http://www.w3.org/2000/svg" xmlns:xlink="http://www.w3.org/1999/xlink" xml:space="preserve" xmlns:serif="http://www.serif.com/" style="fill-rule:evenodd;clip-rule:evenodd;stroke-linejoin:round;stroke-miterlimit:2;">
    <path d="M2483.42,653.495C2483.42,692.703 2451.66,724.46 2412.38,724.46L87.621,724.46C48.359,724.46 16.492,692.703 16.492,653.495L16.492,87.579C16.492,48.391 48.361,16.522 87.621,16.522L2412.36,16.522C2451.66,16.522 2483.4,48.391 2483.4,87.579L2483.42,653.495Z" style="fill:white;fill-rule:nonzero;"/>
    <path d="M2412.38,740.969L87.621,740.969C39.318,740.969 -0,701.744 -0,653.495L-0,87.597C-0,39.312 39.318,0.031 87.621,0.031L2412.36,0.031C2460.61,0.031 2499.98,39.312 2499.98,87.597L2499.98,653.495C2500.02,701.744 2460.64,740.969 2412.38,740.969Z" style="fill:rgb(166,166,166);fill-rule:nonzero;"/>
    <path d="M2483.42,653.495C2483.42,692.703 2451.66,724.46 2412.38,724.46L87.621,724.46C48.359,724.46 16.492,692.703 16.492,653.495L16.492,87.579C16.492,48.391 48.361,16.522 87.621,16.522L2412.36,16.522C2451.66,16.522 2483.4,48.391 2483.4,87.579L2483.42,653.495Z" style="fill-rule:nonzero;"/>
    <path d="M558.227,366.6C557.69,306.882 607.124,277.83 609.385,276.477C581.388,235.659 537.996,230.082 522.747,229.637C486.301,225.801 450.949,251.445 432.383,251.445C413.447,251.445 384.858,230.007 354.045,230.637C314.394,231.249 277.301,254.206 256.955,289.855C214.971,362.542 246.283,469.359 286.51,528.113C306.63,556.906 330.144,589.016 360.919,587.886C391.028,586.663 402.274,568.709 438.609,568.709C474.608,568.709 485.171,587.886 516.557,587.163C548.872,586.663 569.215,558.259 588.634,529.225C611.888,496.262 621.224,463.763 621.597,462.096C620.854,461.836 558.857,438.157 558.227,366.6ZM498.936,190.986C515.129,170.735 526.21,143.183 523.134,115.223C499.694,116.261 470.384,131.436 453.503,151.243C438.569,168.697 425.228,197.305 428.674,224.208C455.005,226.172 482.038,210.923 498.936,190.986Z" style="fill:white;fill-rule:nonzero;"/>
    <g>
        <path d="M994.333,583.754L952.255,583.754L929.206,511.326L849.087,511.326L827.13,583.754L786.165,583.754L865.56,337.176L914.587,337.176L994.333,583.754ZM922.259,480.939L901.414,416.553C899.209,409.975 895.059,394.485 888.98,370.102L888.241,370.102C885.795,380.589 881.885,396.079 876.531,416.553L856.038,480.939L922.259,480.939ZM1198.11,492.668C1198.11,522.906 1189.9,546.808 1173.47,564.356C1158.76,579.974 1140.47,587.776 1118.66,587.776C1095.11,587.776 1078.17,579.381 1067.89,562.559L1067.89,655.85L1028.39,655.85L1028.39,464.393C1028.39,445.4 1027.89,425.928 1026.93,405.954L1061.67,405.954L1063.87,434.136L1064.61,434.136C1077.79,412.903 1097.78,402.284 1124.61,402.284C1145.58,402.284 1163.09,410.566 1177.1,427.149C1191.09,443.771 1198.11,465.598 1198.11,492.668ZM1157.87,494.113C1157.87,476.807 1153.98,462.54 1146.16,451.294C1137.61,439.602 1126.14,433.749 1111.77,433.749C1102.02,433.749 1093.16,437.008 1085.25,443.438C1077.32,449.923 1072.13,458.39 1069.71,468.877C1068.49,473.769 1067.88,477.752 1067.88,480.904L1067.88,510.566C1067.88,523.481 1071.84,534.396 1079.77,543.326C1087.7,552.22 1098,556.684 1110.68,556.684C1125.56,556.684 1137.14,550.923 1145.42,539.489C1153.72,528.02 1157.87,512.901 1157.87,494.113ZM1402.61,492.668C1402.61,522.906 1394.4,546.808 1377.97,564.356C1363.24,579.974 1344.97,587.776 1323.14,587.776C1299.59,587.776 1282.66,579.381 1272.37,562.559L1272.37,655.85L1232.87,655.85L1232.87,464.393C1232.87,445.4 1232.37,425.928 1231.41,405.954L1266.15,405.954L1268.35,434.136L1269.09,434.136C1282.25,412.903 1302.24,402.284 1329.09,402.284C1350.04,402.284 1367.55,410.566 1381.6,427.149C1395.57,443.771 1402.61,465.598 1402.61,492.668ZM1362.35,494.113C1362.35,476.807 1358.44,462.54 1350.62,451.294C1342.08,439.602 1330.64,433.749 1316.27,433.749C1306.52,433.749 1297.66,437.008 1289.71,443.438C1281.79,449.923 1276.62,458.39 1274.19,468.877C1272.98,473.769 1272.34,477.752 1272.34,480.904L1272.34,510.566C1272.34,523.481 1276.32,534.396 1284.21,543.326C1292.14,552.202 1302.44,556.684 1315.15,556.684C1330.05,556.684 1341.63,550.923 1349.9,539.489C1358.2,528.02 1362.35,512.901 1362.35,494.113ZM1631.25,514.587C1631.25,535.58 1623.91,552.645 1609.33,565.818C1593.29,580.197 1570.89,587.404 1542.17,587.404C1515.63,587.404 1494.36,582.29 1478.32,572.044L1487.45,539.119C1504.78,549.384 1523.81,554.498 1544.52,554.498C1559.42,554.498 1571,551.125 1579.26,544.437C1587.54,537.729 1591.73,528.761 1591.73,517.57C1591.73,507.548 1588.27,499.153 1581.47,492.317C1574.63,485.499 1563.33,479.144 1547.45,473.307C1504.28,457.206 1482.67,433.656 1482.67,402.676C1482.67,382.443 1490.31,365.879 1505.54,352.927C1520.77,339.994 1540.96,333.529 1566.09,333.529C1588.53,333.529 1607.22,337.439 1622.06,345.239L1612.15,377.44C1598.18,369.881 1582.41,366.101 1564.77,366.101C1550.84,366.101 1539.91,369.529 1532.09,376.347C1525.51,382.443 1522.17,389.875 1522.17,398.693C1522.17,408.422 1525.97,416.5 1533.53,422.837C1540.09,428.672 1552.06,435.029 1569.37,441.847C1590.6,450.407 1606.2,460.376 1616.19,471.826C1626.25,483.274 1631.25,497.559 1631.25,514.587ZM1762.19,435.6L1718.65,435.6L1718.65,521.924C1718.65,543.881 1726.32,554.831 1741.7,554.831C1748.76,554.831 1754.62,554.237 1759.25,552.997L1760.34,582.994C1752.56,585.905 1742.31,587.367 1729.62,587.367C1714.02,587.367 1701.83,582.605 1693.03,573.082C1684.26,563.558 1679.85,547.605 1679.85,525.148L1679.85,435.526L1653.91,435.526L1653.91,405.88L1679.85,405.88L1679.85,373.326L1718.65,361.616L1718.65,405.88L1762.19,405.88L1762.19,435.6ZM1958.26,493.39C1958.26,520.718 1950.44,543.157 1934.84,560.705C1918.52,578.77 1896.8,587.775 1869.73,587.775C1843.61,587.775 1822.84,579.122 1807.35,561.835C1791.86,544.509 1784.11,522.684 1784.11,496.355C1784.11,468.802 1792.12,446.235 1808.07,428.689C1824.06,411.124 1845.59,402.343 1872.66,402.343C1898.75,402.343 1919.7,411.013 1935.56,428.318C1950.72,445.105 1958.26,466.783 1958.26,493.39ZM1917.31,494.298C1917.31,478.01 1913.79,464.04 1906.73,452.348C1898.45,438.229 1886.59,431.172 1871.23,431.172C1855.41,431.172 1843.28,438.229 1835.01,452.348C1827.93,464.04 1824.41,478.251 1824.41,495.038C1824.41,511.345 1827.93,525.351 1835.01,537.007C1843.55,551.125 1855.47,558.185 1870.9,558.185C1886,558.185 1897.84,550.977 1906.4,536.655C1913.66,524.685 1917.31,510.622 1917.31,494.298ZM2086.72,440.695C2082.81,439.971 2078.62,439.601 2074.27,439.601C2060.37,439.601 2049.63,444.827 2042.07,455.35C2035.51,464.614 2032.21,476.324 2032.21,490.461L2032.21,583.753L1992.71,583.753L1992.71,461.948C1992.71,441.474 1992.32,422.797 1991.56,405.973L2025.97,405.973L2027.41,439.99L2028.51,439.99C2032.69,428.3 2039.25,418.867 2048.26,411.808C2057.06,405.454 2066.56,402.284 2076.81,402.284C2080.46,402.284 2083.76,402.544 2086.69,403.008L2086.72,440.695ZM2263.39,486.442C2263.39,493.52 2262.93,499.485 2261.94,504.359L2143.43,504.359C2143.88,521.924 2149.63,535.376 2160.63,544.64C2170.62,552.906 2183.53,557.054 2199.39,557.054C2216.94,557.054 2232.95,554.275 2247.34,548.661L2253.53,576.065C2236.71,583.402 2216.85,587.052 2193.93,587.052C2166.36,587.052 2144.71,578.935 2128.97,562.743C2113.25,546.53 2105.38,524.741 2105.38,497.448C2105.38,470.654 2112.7,448.329 2127.35,430.523C2142.7,411.513 2163.43,402.006 2189.52,402.006C2215.14,402.006 2234.54,411.511 2247.71,430.523C2258.15,445.587 2263.39,464.264 2263.39,486.442ZM2225.72,476.196C2226,464.467 2223.41,454.369 2218.05,445.828C2211.21,434.822 2200.69,429.337 2186.59,429.337C2173.67,429.337 2163.15,434.692 2155.15,445.439C2148.57,453.98 2144.66,464.245 2143.46,476.159L2225.72,476.196Z" style="fill:white;fill-rule:nonzero;"/>
    </g>
    <g>
        <path d="M903.212,248.925L882.514,248.925L871.193,213.332L831.82,213.332L821.018,248.925L800.877,248.925L839.898,127.73L863.985,127.73L903.212,248.925ZM867.784,198.398L857.537,166.751C856.463,163.509 854.48,155.967 851.423,143.924L851.052,143.924C849.792,149.13 847.995,156.69 845.29,166.751L835.229,198.398L867.784,198.398ZM1000.78,161.545L967.689,248.925L948.807,248.925L916.791,161.545L937.655,161.545L952.589,207.755C955.108,215.481 957.258,222.855 958.87,229.859L959.407,229.859C960.854,223.578 963.002,216.204 965.688,207.755L980.437,161.545L1000.78,161.545ZM1071.23,248.925L1069.78,238.863L1069.24,238.863C1063.31,246.96 1054.68,250.906 1043.71,250.906C1028.07,250.906 1016.92,239.937 1016.92,225.188C1016.92,203.621 1035.61,192.467 1067.98,192.467L1067.98,190.855C1067.98,179.349 1061.87,173.587 1049.83,173.587C1041.19,173.587 1033.63,175.754 1027,180.072L1023.05,167.305C1031.15,162.266 1041.21,159.746 1053.08,159.746C1075.91,159.746 1087.44,171.789 1087.44,195.895L1087.44,228.079C1087.44,236.899 1087.81,243.736 1088.7,248.942L1071.23,248.925ZM1068.52,205.402C1046.94,205.402 1036.15,210.627 1036.15,223.022C1036.15,232.194 1041.73,236.678 1049.46,236.678C1059.35,236.678 1068.52,229.137 1068.52,218.89L1068.52,205.402ZM1130.68,147.148C1124.22,147.148 1119.18,142.108 1119.18,135.456C1119.18,128.805 1124.39,123.95 1131.06,123.95C1137.71,123.95 1143.1,128.805 1142.91,135.456C1142.91,142.479 1137.89,147.148 1130.68,147.148ZM1140.76,248.925L1121.35,248.925L1121.35,161.545L1140.76,161.545L1140.76,248.925ZM1194.68,248.925L1175.26,248.925L1175.26,121.449L1194.68,121.449L1194.68,248.925ZM1277.21,248.925L1275.76,238.863L1275.23,238.863C1269.3,246.96 1260.66,250.906 1249.69,250.906C1234.06,250.906 1222.9,239.937 1222.9,225.188C1222.9,203.621 1241.6,192.467 1273.96,192.467L1273.96,190.855C1273.96,179.349 1267.85,173.587 1255.81,173.587C1247.17,173.587 1239.61,175.754 1232.98,180.072L1229.02,167.287C1237.11,162.247 1247.17,159.727 1259.05,159.727C1281.88,159.727 1293.4,171.771 1293.4,195.876L1293.4,228.06C1293.4,236.88 1293.79,243.717 1294.64,248.924L1277.21,248.924L1277.21,248.925ZM1274.5,205.402C1252.92,205.402 1242.13,210.627 1242.13,223.022C1242.13,232.194 1247.71,236.678 1255.44,236.678C1265.33,236.678 1274.5,229.137 1274.5,218.89L1274.5,205.402ZM1372.08,250.908C1359.68,250.908 1350.53,245.683 1344.6,235.436L1344.21,235.436L1343.1,248.925L1326.55,248.925C1327.09,241.921 1327.27,233.991 1327.27,225.375L1327.27,121.449L1346.71,121.449L1346.71,174.329L1347.08,174.329C1352.84,164.62 1362.16,159.766 1374.95,159.766C1396,159.766 1410.74,177.757 1410.74,203.993C1410.74,231.119 1394.36,250.908 1372.08,250.908ZM1368.13,175.015C1356.95,175.015 1346.73,184.724 1346.73,198.212L1346.73,213.499C1346.73,225.542 1355.92,235.436 1367.8,235.436C1382.34,235.436 1390.99,223.578 1390.99,204.697C1390.97,187.077 1381.97,175.015 1368.13,175.015ZM1458.86,248.925L1439.46,248.925L1439.46,121.449L1458.86,121.449L1458.86,248.925ZM1564.57,209.904L1506.28,209.904C1506.67,226.45 1517.6,235.788 1533.79,235.788C1542.43,235.788 1550.34,234.343 1557.34,231.656L1560.36,245.145C1552.1,248.74 1542.39,250.537 1531.07,250.537C1503.72,250.537 1487.54,233.268 1487.54,206.495C1487.54,179.703 1504.11,159.562 1528.88,159.562C1551.17,159.562 1565.22,176.108 1565.22,201.103C1565.29,204.512 1565.12,207.569 1564.57,209.904ZM1546.76,196.063C1546.76,182.574 1539.92,173.051 1527.51,173.051C1516.36,173.051 1507.57,182.76 1506.28,196.063L1546.76,196.063ZM1682.26,250.908C1656.73,250.908 1640.18,231.842 1640.18,205.957C1640.18,178.98 1657.08,159.747 1683.72,159.747C1708.87,159.747 1725.8,177.905 1725.8,204.531C1725.8,231.842 1708.35,250.908 1682.26,250.908ZM1683,173.94C1668.98,173.94 1659.99,187.058 1659.99,205.402C1659.99,223.393 1669.16,236.511 1682.82,236.511C1696.47,236.511 1705.62,222.485 1705.62,205.031C1705.64,187.244 1696.66,173.94 1683,173.94ZM1830.19,248.925L1810.79,248.925L1810.79,198.75C1810.79,183.297 1804.86,175.552 1793.17,175.552C1781.67,175.552 1773.74,185.446 1773.74,196.953L1773.74,248.925L1754.34,248.925L1754.34,186.521C1754.34,178.795 1754.13,170.512 1753.62,161.526L1770.7,161.526L1771.61,175.015L1772.14,175.015C1777.33,165.676 1787.97,159.729 1799.83,159.729C1818.15,159.729 1830.19,173.755 1830.19,196.582L1830.19,248.925ZM1957.24,176.108L1935.88,176.108L1935.88,218.538C1935.88,229.34 1939.64,234.732 1947.18,234.732C1950.61,234.732 1953.5,234.362 1955.82,233.824L1956.36,248.573C1952.57,250.02 1947.52,250.741 1941.27,250.741C1925.97,250.741 1916.83,242.292 1916.83,220.169L1916.83,176.108L1904.08,176.108L1904.08,161.545L1916.83,161.545L1916.83,145.536L1935.88,139.774L1935.88,161.526L1957.24,161.526L1957.24,176.108ZM2060.08,248.925L2040.64,248.925L2040.64,199.12C2040.64,183.482 2034.71,175.571 2023.02,175.571C2012.96,175.571 2003.62,182.408 2003.62,196.248L2003.62,248.925L1984.18,248.925L1984.18,121.449L2003.62,121.449L2003.62,173.94L2003.99,173.94C2010.11,164.416 2018.92,159.729 2030.25,159.729C2048.76,159.729 2060.08,174.107 2060.08,196.953L2060.08,248.925ZM2159.3,209.904L2101.03,209.904C2101.4,226.45 2112.33,235.788 2128.52,235.788C2137.18,235.788 2145.07,234.343 2152.07,231.656L2155.11,245.145C2146.85,248.74 2137.12,250.537 2125.8,250.537C2098.45,250.537 2082.28,233.268 2082.28,206.495C2082.28,179.703 2098.84,159.562 2123.61,159.562C2145.9,159.562 2159.95,176.108 2159.95,201.103C2160.02,204.512 2159.83,207.569 2159.3,209.904ZM2141.49,196.063C2141.49,182.574 2134.67,173.051 2122.26,173.051C2111.09,173.051 2102.3,182.76 2101.02,196.063L2141.49,196.063Z" style="fill:white;fill-rule:nonzero;"/>
    </g>
</svg>
