<?xml version="1.0" encoding="UTF-8" standalone="no"?>
<!DOCTYPE svg PUBLIC "-//W3C//DTD SVG 1.1//EN" "http://www.w3.org/Graphics/SVG/1.1/DTD/svg11.dtd">
<svg width="100%" height="100%" viewBox="0 0 2500 741" version="1.1" xmlns="http://www.w3.org/2000/svg" xmlns:xlink="http://www.w3.org/1999/xlink" xml:space="preserve" xmlns:serif="http://www.serif.com/" style="fill-rule:evenodd;clip-rule:evenodd;stroke-miterlimit:10;">
    <path d="M2483.42,653.495C2483.42,692.703 2451.66,724.46 2412.38,724.46L87.621,724.46C48.359,724.46 16.492,692.703 16.492,653.495L16.492,87.579C16.492,48.391 48.361,16.522 87.621,16.522L2412.36,16.522C2451.66,16.522 2483.4,48.391 2483.4,87.579L2483.42,653.495Z" style="fill:white;fill-rule:nonzero;"/>
    <path d="M2412.38,740.969L87.621,740.969C39.318,740.969 -0,701.744 -0,653.495L-0,87.597C-0,39.312 39.318,0.031 87.621,0.031L2412.36,0.031C2460.61,0.031 2499.98,39.312 2499.98,87.597L2499.98,653.495C2500.02,701.744 2460.64,740.969 2412.38,740.969Z" style="fill:rgb(166,166,166);fill-rule:nonzero;"/>
    <path d="M2483.42,653.495C2483.42,692.703 2451.66,724.46 2412.38,724.46L87.621,724.46C48.359,724.46 16.492,692.703 16.492,653.495L16.492,87.579C16.492,48.391 48.361,16.522 87.621,16.522L2412.36,16.522C2451.66,16.522 2483.4,48.391 2483.4,87.579L2483.42,653.495Z" style="fill-rule:nonzero;"/>
    <g transform="matrix(1,0,0,1,44.075,-9.05)">
        <g transform="matrix(1.17034,0,0,1.1347,-263.928,31.1389)">
            <path d="M948.8,153.6C948.8,166.2 945.05,176.25 937.55,183.6C929.15,192.45 918.2,196.95 904.55,196.95C891.5,196.95 880.4,192.45 871.4,183.45C862.4,174.45 857.9,163.2 857.9,150C857.9,136.8 862.4,125.55 871.4,116.55C880.4,107.55 891.5,102.9 904.55,102.9C911.15,102.9 917.45,104.1 923.3,106.35C929.15,108.75 933.95,112.05 937.7,116.25L929.45,124.5C926.75,121.2 923.15,118.5 918.65,116.7C914.204,114.766 909.398,113.794 904.55,113.85C894.8,113.85 886.4,117.3 879.65,124.05C872.9,130.95 869.6,139.5 869.6,149.85C869.6,160.2 872.9,168.75 879.65,175.65C886.4,182.4 894.65,185.85 904.55,185.85C913.55,185.85 920.9,183.3 926.9,178.35C932.9,173.4 936.35,166.35 937.25,157.65L904.55,157.65L904.55,146.85L948.2,146.85C948.5,149.25 948.8,151.5 948.8,153.6ZM1017.95,105L1017.95,116.1L977,116.1L977,144.6L1013.9,144.6L1013.9,155.4L977,155.4L977,183.9L1017.95,183.9L1017.95,195L965.45,195L965.45,105L1017.95,105ZM1066.7,116.1L1066.7,195L1055.15,195L1055.15,116.1L1029.95,116.1L1029.95,105L1091.75,105L1091.75,116.1L1066.7,116.1ZM1148.15,195L1136.6,195L1136.6,105L1148.15,105L1148.15,195ZM1199.45,116.1L1199.45,195L1187.9,195L1187.9,116.1L1162.7,116.1L1162.7,105L1224.5,105L1224.5,116.1L1199.45,116.1ZM1354.85,150C1354.85,163.35 1350.35,174.45 1341.5,183.45C1332.5,192.45 1321.55,196.95 1308.5,196.95C1295.45,196.95 1284.5,192.45 1275.5,183.45C1266.65,174.45 1262.15,163.35 1262.15,150C1262.15,136.65 1266.65,125.55 1275.5,116.55C1284.35,107.55 1295.3,102.9 1308.5,102.9C1321.55,102.9 1332.5,107.4 1341.5,116.55C1350.5,125.7 1354.85,136.8 1354.85,150ZM1274.15,150C1274.15,160.35 1277.45,169.05 1283.9,175.8C1290.5,182.55 1298.75,186 1308.5,186C1318.25,186 1326.5,182.55 1332.95,175.8C1339.55,169.05 1342.85,160.5 1342.85,150C1342.85,139.5 1339.55,130.95 1332.95,124.2C1326.35,117.45 1318.25,114 1308.5,114C1298.75,114 1290.5,117.45 1283.9,124.2C1277.45,130.95 1274.15,139.65 1274.15,150ZM1382.75,195L1371.05,195L1371.05,105L1385.15,105L1428.95,175.05L1429.4,175.05L1428.95,157.65L1428.95,105L1440.5,105L1440.5,195L1428.5,195L1382.75,121.65L1382.3,121.65L1382.75,139.05L1382.75,195Z" style="fill:white;fill-rule:nonzero;stroke:white;stroke-width:3px;"/>
            <path d="M1259.6,326.25C1224.35,326.25 1195.55,353.1 1195.55,390C1195.55,426.75 1224.35,453.75 1259.6,453.75C1294.85,453.75 1323.65,426.75 1323.65,390C1323.65,353.1 1294.85,326.25 1259.6,326.25ZM1259.6,428.7C1240.25,428.7 1223.6,412.8 1223.6,390C1223.6,367.05 1240.25,351.3 1259.6,351.3C1278.95,351.3 1295.6,367.05 1295.6,390C1295.6,412.8 1278.8,428.7 1259.6,428.7ZM1119.8,326.25C1084.55,326.25 1055.75,353.1 1055.75,390C1055.75,426.75 1084.55,453.75 1119.8,453.75C1155.05,453.75 1183.85,426.75 1183.85,390C1183.85,353.1 1155.05,326.25 1119.8,326.25ZM1119.8,428.7C1100.45,428.7 1083.8,412.8 1083.8,390C1083.8,367.05 1100.45,351.3 1119.8,351.3C1139.15,351.3 1155.8,367.05 1155.8,390C1155.8,412.8 1139.15,428.7 1119.8,428.7ZM953.6,345.9L953.6,372.9L1018.4,372.9C1016.45,388.05 1011.35,399.3 1003.7,406.95C994.25,416.4 979.55,426.75 953.75,426.75C913.85,426.75 882.65,394.65 882.65,354.75C882.65,314.85 913.85,282.75 953.75,282.75C975.2,282.75 990.95,291.15 1002.5,302.1L1021.55,283.05C1005.35,267.6 983.9,255.75 953.6,255.75C899,255.75 853.1,300.15 853.1,354.9C853.1,409.5 899,454.05 953.6,454.05C983.15,454.05 1005.35,444.45 1022.75,426.3C1040.6,408.45 1046.15,383.25 1046.15,363C1046.15,356.7 1045.7,350.85 1044.65,346.05L953.6,346.05L953.6,345.9ZM1633.25,366.9C1628,352.65 1611.8,326.25 1578.65,326.25C1545.8,326.25 1518.5,352.05 1518.5,390C1518.5,425.7 1545.5,453.75 1581.8,453.75C1611.05,453.75 1628,435.9 1634.9,425.55L1613.15,411C1605.95,421.65 1596.05,428.7 1581.8,428.7C1567.55,428.7 1557.35,422.25 1550.9,409.35L1636.25,374.1L1633.25,366.9ZM1546.25,388.2C1545.5,363.6 1565.3,351 1579.55,351C1590.65,351 1600.1,356.55 1603.25,364.5L1546.25,388.2ZM1476.95,450L1505,450L1505,262.5L1476.95,262.5L1476.95,450ZM1431.05,340.5L1430,340.5C1423.7,333 1411.7,326.25 1396.4,326.25C1364.45,326.25 1335.2,354.3 1335.2,390.3C1335.2,426 1364.45,453.9 1396.4,453.9C1411.55,453.9 1423.7,447.15 1430,439.35L1430.9,439.35L1430.9,448.5C1430.9,472.95 1417.85,486 1396.85,486C1379.75,486 1369.1,473.7 1364.75,463.35L1340.3,473.55C1347.35,490.5 1365.95,511.2 1396.85,511.2C1429.7,511.2 1457.45,491.85 1457.45,444.75L1457.45,330.15L1430.9,330.15L1430.9,340.5L1431.05,340.5ZM1398.8,428.7C1379.45,428.7 1363.25,412.5 1363.25,390.3C1363.25,367.8 1379.45,351.45 1398.8,351.45C1417.85,351.45 1432.85,367.95 1432.85,390.3C1433,412.5 1418,428.7 1398.8,428.7ZM1764.65,262.5L1697.6,262.5L1697.6,450L1725.65,450L1725.65,378.9L1764.8,378.9C1795.85,378.9 1826.3,356.4 1826.3,320.7C1826.15,285 1795.55,262.5 1764.65,262.5ZM1765.25,352.8L1725.5,352.8L1725.5,288.45L1765.25,288.45C1786.25,288.45 1798.1,305.85 1798.1,320.55C1798.1,335.25 1786.25,352.8 1765.25,352.8ZM1938.35,325.95C1918.1,325.95 1897.1,334.95 1888.4,354.6L1913.3,364.95C1918.55,354.6 1928.45,351.15 1938.8,351.15C1953.2,351.15 1968.05,359.85 1968.2,375.3L1968.2,377.25C1963.1,374.4 1952.3,370.05 1938.95,370.05C1912.1,370.05 1884.95,384.75 1884.95,412.2C1884.95,437.25 1906.85,453.45 1931.45,453.45C1950.2,453.45 1960.7,445.05 1967.15,435.15L1968.05,435.15L1968.05,449.55L1995.05,449.55L1995.05,377.7C1995.2,344.55 1970.3,325.95 1938.35,325.95ZM1934.9,428.7C1925.75,428.7 1913,424.05 1913,412.8C1913,398.4 1928.9,392.85 1942.7,392.85C1955,392.85 1960.85,395.55 1968.2,399.15C1966.06,415.863 1951.75,428.56 1934.9,428.7ZM2093.6,330L2061.5,411.3L2060.6,411.3L2027.3,330L1997.15,330L2047.1,443.7L2018.6,506.85L2047.85,506.85L2124.8,330L2093.6,330ZM1841.6,450L1869.65,450L1869.65,262.5L1841.6,262.5L1841.6,450Z" style="fill:white;fill-rule:nonzero;"/>
        </g>
        <g transform="matrix(1.17034,0,0,1.1347,-263.928,31.1389)">
            <path d="M548.3,291.3L388.55,460.8L388.55,460.95C393.607,479.734 410.769,492.887 430.221,492.887C437.934,492.887 445.507,490.819 452.15,486.9L452.6,486.6L632.3,382.95L548.3,291.3Z" style="fill:rgb(234,67,53);fill-rule:nonzero;"/>
            <path d="M709.85,262.5L709.7,262.35L632.15,217.35L544.7,295.2L632.45,382.95L709.7,338.4C723.627,330.861 732.335,316.245 732.335,300.409C732.335,284.634 723.693,270.065 709.85,262.5Z" style="fill:rgb(251,188,4);fill-rule:nonzero;"/>
            <path d="M388.55,139.2C387.65,142.8 387.05,146.4 387.05,150.3L387.05,449.85C387.05,453.75 387.5,457.35 388.55,460.95L553.7,295.8L388.55,139.2Z" style="fill:rgb(66,133,244);fill-rule:nonzero;"/>
            <path d="M549.5,300L632.15,217.35L452.6,113.25C445.879,109.231 438.192,107.108 430.361,107.108C410.875,107.108 393.673,120.25 388.55,139.05L549.5,300Z" style="fill:rgb(52,168,83);fill-rule:nonzero;"/>
        </g>
    </g>
</svg>
