<?xml version="1.0" encoding="UTF-8" standalone="no"?>
<!DOCTYPE svg PUBLIC "-//W3C//DTD SVG 1.1//EN" "http://www.w3.org/Graphics/SVG/1.1/DTD/svg11.dtd">
<svg width="100%" height="100%" viewBox="0 0 2500 741" version="1.1" xmlns="http://www.w3.org/2000/svg" xmlns:xlink="http://www.w3.org/1999/xlink" xml:space="preserve" xmlns:serif="http://www.serif.com/" style="fill-rule:evenodd;clip-rule:evenodd;stroke-linejoin:round;stroke-miterlimit:2;">
    <path d="M2483.42,653.495C2483.42,692.703 2451.66,724.46 2412.38,724.46L87.621,724.46C48.359,724.46 16.492,692.703 16.492,653.495L16.492,87.579C16.492,48.391 48.361,16.522 87.621,16.522L2412.36,16.522C2451.66,16.522 2483.4,48.391 2483.4,87.579L2483.42,653.495Z" style="fill:white;fill-rule:nonzero;"/>
    <path d="M2412.38,740.969L87.621,740.969C39.318,740.969 -0,701.744 -0,653.495L-0,87.597C-0,39.312 39.318,0.031 87.621,0.031L2412.36,0.031C2460.61,0.031 2499.98,39.312 2499.98,87.597L2499.98,653.495C2500.02,701.744 2460.64,740.969 2412.38,740.969Z" style="fill:rgb(166,166,166);fill-rule:nonzero;"/>
    <path d="M2483.42,653.495C2483.42,692.703 2451.66,724.46 2412.38,724.46L87.621,724.46C48.359,724.46 16.492,692.703 16.492,653.495L16.492,87.579C16.492,48.391 48.361,16.522 87.621,16.522L2412.36,16.522C2451.66,16.522 2483.4,48.391 2483.4,87.579L2483.42,653.495Z" style="fill-rule:nonzero;"/>
    <g transform="matrix(1.26153,0,0,1.26153,-347.414,-0.87845)">
        <g transform="matrix(3.09531,0,0,2.92332,341.517,17.0001)">
            <path d="M173.354,41.675C176.294,41.231 179.262,41.006 182.235,41.003C188.235,41.003 192.508,42.396 195.34,45.036C198.221,47.676 199.9,51.42 199.9,56.653C199.9,61.933 198.269,66.253 195.244,69.23C192.22,72.254 187.228,73.886 180.939,73.886C178.406,73.901 175.874,73.773 173.354,73.502L173.354,41.675ZM177.53,70.286C178.93,70.479 180.343,70.559 181.755,70.526C190.684,70.526 195.532,65.534 195.532,56.797C195.58,49.164 191.26,44.316 182.427,44.316C180.784,44.29 179.143,44.435 177.53,44.747L177.53,70.286Z" style="fill:white;fill-rule:nonzero;"/>
            <path d="M226.396,61.789C226.396,70.382 220.442,74.126 214.826,74.126C208.538,74.126 203.689,69.518 203.689,62.173C203.689,54.397 208.778,49.836 215.21,49.836C221.883,49.836 226.396,54.685 226.396,61.789ZM207.962,62.03C207.962,67.118 210.89,70.958 215.019,70.958C219.051,70.958 222.075,67.165 222.075,61.933C222.075,57.996 220.106,53.004 215.114,53.004C210.122,53.004 207.962,57.613 207.962,62.03Z" style="fill:white;fill-rule:nonzero;"/>
            <path d="M233.066,50.365L236.139,62.173C236.811,64.765 237.435,67.165 237.866,69.566L238.011,69.566C238.539,67.213 239.307,64.717 240.075,62.221L243.867,50.365L247.42,50.365L251.02,61.981C251.884,64.765 252.556,67.213 253.084,69.566L253.228,69.566C253.68,67.023 254.273,64.507 255.004,62.03L258.316,50.365L262.493,50.365L255.004,73.598L251.164,73.598L247.611,62.509C246.794,60.002 246.105,57.454 245.548,54.876L245.451,54.876C244.896,57.475 244.191,60.04 243.339,62.557L239.595,73.598L235.755,73.598L228.746,50.365L233.066,50.365Z" style="fill:white;fill-rule:nonzero;"/>
            <path d="M266.713,56.653C266.713,54.252 266.665,52.285 266.521,50.365L270.266,50.365L270.506,54.204L270.602,54.204C272.15,51.439 275.114,49.753 278.282,49.836C281.499,49.836 286.491,51.756 286.491,59.725L286.491,73.598L282.267,73.598L282.267,60.205C282.267,56.46 280.874,53.34 276.891,53.34C274.267,53.383 271.961,55.141 271.226,57.661C271.022,58.296 270.925,58.962 270.938,59.629L270.938,73.598L266.713,73.598L266.713,56.653Z" style="fill:white;fill-rule:nonzero;"/>
            <rect x="293.353" y="39.515" width="4.225" height="34.083" style="fill:white;"/>
            <path d="M325.707,61.789C325.707,70.382 319.754,74.126 314.138,74.126C307.85,74.126 303.001,69.518 303.001,62.173C303.001,54.397 308.089,49.836 314.521,49.836C321.194,49.836 325.707,54.685 325.707,61.789ZM307.273,62.03C307.273,67.118 310.201,70.958 314.33,70.958C318.362,70.958 321.387,67.165 321.387,61.933C321.387,57.996 319.418,53.004 314.426,53.004C309.434,53.004 307.273,57.613 307.273,62.03Z" style="fill:white;fill-rule:nonzero;"/>
            <path d="M343.897,73.598L343.562,70.67L343.418,70.67C341.746,72.897 339.098,74.186 336.314,74.126C331.608,74.126 329.208,70.814 329.208,67.453C329.208,61.837 334.201,58.765 343.178,58.813L343.178,58.333C343.178,56.412 342.649,52.956 337.897,52.956C335.76,52.963 333.666,53.561 331.849,54.685L330.889,51.901C333.191,50.515 335.835,49.8 338.521,49.836C345.626,49.836 347.354,54.685 347.354,59.341L347.354,68.03C347.323,69.893 347.452,71.756 347.738,73.598L343.897,73.598ZM343.273,61.742C338.665,61.645 333.433,62.461 333.433,66.974C333.424,67.075 333.42,67.176 333.42,67.277C333.42,69.328 335.108,71.015 337.158,71.015C337.245,71.015 337.331,71.012 337.417,71.006C339.93,71.073 342.212,69.493 343.033,67.118C343.183,66.685 343.264,66.231 343.273,65.774L343.273,61.742Z" style="fill:white;fill-rule:nonzero;"/>
            <path d="M374.234,39.515L374.234,67.598C374.234,69.661 374.282,72.014 374.426,73.598L370.634,73.598L370.441,69.566L370.346,69.566C368.802,72.476 365.716,74.253 362.425,74.126C356.809,74.126 352.488,69.373 352.488,62.318C352.44,54.588 357.24,49.836 362.905,49.836C366.457,49.836 368.857,51.516 369.914,53.388L370.01,53.388L370.01,39.515L374.234,39.515ZM370.01,59.821C370.017,59.223 369.953,58.627 369.817,58.045C369.199,55.189 366.644,53.137 363.722,53.149C359.353,53.149 356.761,56.989 356.761,62.125C356.761,66.829 359.064,70.718 363.625,70.718C366.609,70.708 369.202,68.597 369.817,65.677C369.958,65.08 370.022,64.467 370.01,63.854L370.01,59.821Z" style="fill:white;fill-rule:nonzero;"/>
        </g>
        <g transform="matrix(3.09531,0,0,2.92332,341.517,17.0001)">
            <path d="M173.925,149.389L173.925,116.334L168.534,116.334L168.534,111.023L173.925,111.023L173.925,109.2C173.925,103.809 175.114,98.895 178.364,95.803C180.9,93.446 184.256,92.167 187.718,92.236C189.752,92.229 191.769,92.606 193.663,93.346L192.712,98.736C191.314,98.124 189.798,97.826 188.272,97.865C182.327,97.865 180.821,103.096 180.821,108.962L180.821,111.023L190.096,111.023L190.096,116.334L180.821,116.334L180.821,149.389L173.925,149.389Z" style="fill:white;fill-rule:nonzero;"/>
            <path d="M226.879,129.889C226.879,144.079 217.05,150.261 207.774,150.261C197.391,150.261 189.385,142.652 189.385,130.523C189.385,117.681 197.787,110.151 208.409,110.151C219.428,110.151 226.879,118.158 226.879,129.889ZM196.439,130.286C196.439,138.688 201.274,145.03 208.092,145.03C214.751,145.03 219.744,138.767 219.744,130.126C219.744,123.626 216.494,115.383 208.25,115.383C200.007,115.383 196.439,122.993 196.439,130.286Z" style="fill:white;fill-rule:nonzero;"/>
            <path d="M232.511,122.993C232.511,118.474 232.431,114.59 232.193,111.023L238.297,111.023L238.535,118.553L238.852,118.553C240.596,113.401 244.797,110.151 249.474,110.151C250.142,110.142 250.809,110.222 251.456,110.389L251.456,116.968C250.675,116.798 249.877,116.718 249.077,116.73C244.163,116.73 240.675,120.456 239.724,125.688C239.528,126.761 239.422,127.848 239.407,128.938L239.407,149.389L232.511,149.389L232.511,122.993Z" style="fill:white;fill-rule:nonzero;"/>
            <path d="M275.001,149.389L261.446,95.961L268.738,95.961L275.08,122.993C276.666,129.651 278.093,136.31 279.044,141.462L279.202,141.462C280.074,136.152 281.739,129.81 283.563,122.913L290.696,95.961L297.91,95.961L304.41,123.072C305.916,129.413 307.343,135.755 308.136,141.383L308.294,141.383C309.404,135.517 310.91,129.572 312.574,122.913L319.63,95.961L326.685,95.961L311.544,149.389L304.331,149.389L297.593,121.566C296.109,115.821 294.945,109.999 294.105,104.126L293.946,104.126C292.886,110.009 291.51,115.831 289.824,121.566L282.215,149.389L275.001,149.389Z" style="fill:white;fill-rule:nonzero;"/>
            <path d="M336.439,100.243C336.418,102.598 334.475,104.524 332.12,104.524C329.764,104.524 327.821,102.598 327.8,100.243C327.799,100.205 327.798,100.168 327.798,100.131C327.798,97.8 329.717,95.881 332.049,95.881C332.086,95.881 332.122,95.881 332.159,95.882C332.208,95.88 332.257,95.88 332.305,95.88C334.576,95.88 336.445,97.749 336.445,100.02C336.445,100.094 336.443,100.168 336.439,100.243ZM328.672,149.389L328.672,111.023L335.647,111.023L335.647,149.389L328.672,149.389Z" style="fill:white;fill-rule:nonzero;"/>
            <path d="M344.051,121.408C344.051,117.444 343.971,114.194 343.733,111.023L349.916,111.023L350.312,117.365L350.471,117.365C353.027,112.798 357.922,110.013 363.154,110.151C368.465,110.151 376.709,113.322 376.709,126.481L376.709,149.389L369.733,149.389L369.733,127.273C369.733,121.09 367.435,115.938 360.855,115.938C356.523,116.008 352.715,118.912 351.502,123.072C351.166,124.121 351.005,125.22 351.026,126.322L351.026,149.389L344.051,149.389L344.051,121.408Z" style="fill:white;fill-rule:nonzero;"/>
            <path d="M418.011,93.108L418.011,139.481C418.011,142.889 418.091,146.774 418.328,149.389L412.065,149.389L411.749,142.731L411.59,142.731C409.45,147.011 404.773,150.261 398.511,150.261C389.236,150.261 382.103,142.413 382.103,130.761C382.022,117.998 389.95,110.151 399.304,110.151C405.17,110.151 409.133,112.925 410.877,116.017L411.035,116.017L411.035,93.108L418.011,93.108ZM411.035,126.639C411.047,125.652 410.941,124.668 410.719,123.706C409.696,118.99 405.477,115.602 400.651,115.62C393.438,115.62 389.157,121.962 389.157,130.444C389.157,138.212 392.962,144.633 400.492,144.633C405.419,144.617 409.702,141.131 410.719,136.31C410.95,135.323 411.056,134.311 411.035,133.297L411.035,126.639Z" style="fill:white;fill-rule:nonzero;"/>
            <path d="M461.137,129.889C461.137,144.079 451.308,150.261 442.032,150.261C431.648,150.261 423.643,142.652 423.643,130.523C423.643,117.681 432.045,110.151 442.667,110.151C453.686,110.151 461.137,118.158 461.137,129.889ZM430.697,130.286C430.697,138.688 435.532,145.03 442.35,145.03C449.009,145.03 454.002,138.767 454.002,130.126C454.002,123.626 450.752,115.383 442.508,115.383C434.265,115.383 430.697,122.993 430.697,130.286Z" style="fill:white;fill-rule:nonzero;"/>
            <path d="M468.989,111.023L474.062,130.523C475.172,134.804 476.202,138.767 476.916,142.731L477.153,142.731C478.025,138.846 479.294,134.724 480.562,130.603L486.824,111.023L492.69,111.023L498.636,130.206C500.062,134.804 501.172,138.846 502.044,142.731L502.282,142.731C503.029,138.531 504.008,134.376 505.215,130.286L510.685,111.023L517.581,111.023L505.215,149.389L498.873,149.389L493.008,131.078C491.658,126.938 490.52,122.731 489.599,118.474L489.44,118.474C488.524,122.766 487.359,127.001 485.952,131.158L479.77,149.389L473.428,149.389L461.854,111.023L468.989,111.023Z" style="fill:white;fill-rule:nonzero;"/>
            <path d="M519.963,142.255C522.726,143.983 525.901,144.941 529.158,145.03C534.231,145.03 536.61,142.493 536.61,139.322C536.61,135.993 534.628,134.169 529.476,132.267C522.579,129.81 519.329,126.005 519.329,121.408C519.329,115.224 524.323,110.151 532.567,110.151C535.864,110.119 539.113,110.938 542,112.529L540.256,117.602C537.897,116.149 535.179,115.38 532.408,115.383C528.287,115.383 525.988,117.761 525.988,120.615C525.988,123.786 528.287,125.212 533.28,127.115C539.939,129.651 543.348,132.981 543.348,138.688C543.348,145.426 538.116,150.182 529,150.182C525.242,150.251 521.528,149.35 518.22,147.566L519.963,142.255Z" style="fill:white;fill-rule:nonzero;"/>
        </g>
        <g transform="matrix(3.09531,0,0,2.92332,341.517,17.0001)">
            <rect x="54.161" y="57.817" width="37.914" height="37.914" style="fill:rgb(242,80,34);"/>
            <rect x="96.066" y="57.817" width="37.985" height="37.914" style="fill:rgb(127,186,0);"/>
            <rect x="54.161" y="99.651" width="37.914" height="37.985" style="fill:rgb(0,164,239);"/>
            <rect x="96.066" y="99.651" width="37.985" height="37.985" style="fill:rgb(255,185,0);"/>
        </g>
    </g>
</svg>
