<?xml version="1.0" encoding="UTF-8" standalone="no"?><!DOCTYPE svg PUBLIC "-//W3C//DTD SVG 1.1//EN" "http://www.w3.org/Graphics/SVG/1.1/DTD/svg11.dtd"><svg width="100%" height="100%" viewBox="0 0 2500 741" version="1.1" xmlns="http://www.w3.org/2000/svg" xmlns:xlink="http://www.w3.org/1999/xlink" xml:space="preserve" xmlns:serif="http://www.serif.com/" style="fill-rule:evenodd;clip-rule:evenodd;stroke-miterlimit:10;"><path d="M2483.42,653.495c-0,39.208 -31.758,70.965 -71.038,70.965l-2324.76,-0c-39.262,-0 -71.129,-31.757 -71.129,-70.965l-0,-565.916c-0,-39.188 31.869,-71.057 71.129,-71.057l2324.74,-0c39.299,-0 71.039,31.869 71.039,71.057l0.019,565.916Z" style="fill:#fff;fill-rule:nonzero;"/><path d="M2412.38,740.969l-2324.76,-0c-48.303,-0 -87.621,-39.225 -87.621,-87.474l0,-565.898c0,-48.285 39.318,-87.566 87.621,-87.566l2324.74,0c48.248,0 87.621,39.281 87.621,87.566l-0,565.898c0.037,48.249 -39.336,87.474 -87.601,87.474Z" style="fill:#a6a6a6;fill-rule:nonzero;"/><path d="M2483.42,653.495c-0,39.208 -31.758,70.965 -71.038,70.965l-2324.76,-0c-39.262,-0 -71.129,-31.757 -71.129,-70.965l-0,-565.916c-0,-39.188 31.869,-71.057 71.129,-71.057l2324.74,-0c39.299,-0 71.039,31.869 71.039,71.057l0.019,565.916Z" style="fill-rule:nonzero;"/><g><g><path d="M890.561,196.38c-0,14.297 -4.389,25.701 -13.166,34.041c-9.831,10.042 -22.646,15.148 -38.622,15.148c-15.272,-0 -28.263,-5.106 -38.796,-15.319c-10.533,-10.212 -15.8,-22.977 -15.8,-37.955c0,-14.979 5.267,-27.744 15.8,-37.956c10.533,-10.213 23.524,-15.489 38.796,-15.489c7.725,-0 15.098,1.362 21.944,3.915c6.847,2.723 12.464,6.468 16.853,11.233l-9.655,9.362c-3.16,-3.745 -7.373,-6.809 -12.64,-8.851c-5.203,-2.195 -10.827,-3.297 -16.502,-3.234c-11.41,0 -21.241,3.915 -29.141,11.574c-7.9,7.829 -11.762,17.531 -11.762,29.275c0,11.745 3.862,21.446 11.762,29.276c7.9,7.659 17.555,11.574 29.141,11.574c10.533,-0 19.135,-2.894 26.157,-8.511c7.022,-5.616 11.06,-13.616 12.113,-23.488l-38.27,0l0,-12.255l51.086,0c0.351,2.724 0.702,5.277 0.702,7.66Zm80.928,-55.147l0,12.595l-47.925,0l0,32.339l43.186,0l-0,12.255l-43.186,0l0,32.339l47.925,0l0,12.595l-61.442,0l-0,-102.123l61.442,-0Zm57.054,12.595l0,89.528l-13.517,0l-0,-89.528l-29.492,0l-0,-12.595l72.326,-0l0,12.595l-29.317,0Zm95.324,89.528l-13.517,0l-0,-102.123l13.517,-0l0,102.123Zm60.038,-89.528l0,89.528l-13.517,0l-0,-89.528l-29.492,0l-0,-12.595l72.326,-0l0,12.595l-29.317,0Zm181.87,38.467c0,15.148 -5.266,27.743 -15.624,37.955c-10.533,10.213 -23.348,15.319 -38.621,15.319c-15.273,-0 -28.088,-5.106 -38.621,-15.319c-10.357,-10.212 -15.624,-22.807 -15.624,-37.955c0,-15.149 5.267,-27.744 15.624,-37.956c10.358,-10.213 23.173,-15.489 38.621,-15.489c15.273,0 28.088,5.106 38.621,15.489c10.533,10.382 15.624,22.977 15.624,37.956Zm-94.446,-0c0,11.744 3.862,21.616 11.411,29.275c7.724,7.659 17.38,11.574 28.79,11.574c11.411,-0 21.066,-3.915 28.615,-11.574c7.724,-7.659 11.586,-17.361 11.586,-29.275c0,-11.915 -3.862,-21.617 -11.586,-29.276c-7.724,-7.659 -17.204,-11.574 -28.615,-11.574c-11.41,0 -21.066,3.915 -28.79,11.574c-7.549,7.659 -11.411,17.531 -11.411,29.276Zm127.099,51.061l-13.693,0l-0,-102.123l16.502,-0l51.26,79.486l0.527,-0l-0.527,-19.744l0,-59.742l13.518,-0l-0,102.123l-14.044,0l-53.543,-83.23l-0.527,-0l0.527,19.744l-0,63.486Z" style="fill:#fff;fill-rule:nonzero;stroke:#fff;stroke-width:3.46px;"/><path d="M1254.3,392.286c-41.254,0 -74.96,30.467 -74.96,72.338c0,41.7 33.706,72.337 74.96,72.337c41.254,0 74.96,-30.637 74.96,-72.337c-0,-41.871 -33.706,-72.338 -74.96,-72.338Zm-0,116.251c-22.646,-0 -42.132,-18.042 -42.132,-43.913c-0,-26.042 19.486,-43.913 42.132,-43.913c22.646,-0 42.132,17.871 42.132,43.913c0,25.871 -19.662,43.913 -42.132,43.913Zm-163.613,-116.251c-41.254,0 -74.96,30.467 -74.96,72.338c0,41.7 33.706,72.337 74.96,72.337c41.254,0 74.96,-30.637 74.96,-72.337c0,-41.871 -33.706,-72.338 -74.96,-72.338Zm0,116.251c-22.646,-0 -42.132,-18.042 -42.132,-43.913c0,-26.042 19.486,-43.913 42.132,-43.913c22.646,-0 42.132,17.871 42.132,43.913c0,25.871 -19.486,43.913 -42.132,43.913Zm-194.51,-93.954l0,30.637l75.838,0c-2.282,17.191 -8.251,29.957 -17.204,38.637c-11.059,10.723 -28.263,22.467 -58.458,22.467c-46.696,0 -83.211,-36.424 -83.211,-81.699c0,-45.274 36.515,-81.698 83.211,-81.698c25.104,-0 43.536,9.531 57.054,21.956l22.295,-21.616c-18.96,-17.531 -44.063,-30.977 -79.525,-30.977c-63.9,-0 -117.618,50.381 -117.618,112.506c-0,61.955 53.718,112.506 117.618,112.506c34.584,-0 60.565,-10.894 80.929,-31.488c20.891,-20.255 27.386,-48.849 27.386,-71.827c-0,-7.149 -0.527,-13.787 -1.756,-19.234l-106.559,0l0,-0.17Zm795.419,23.829c-6.145,-16.169 -25.104,-46.126 -63.901,-46.126c-38.445,0 -70.395,29.276 -70.395,72.338c-0,40.509 31.599,72.337 74.082,72.337c34.232,0 54.069,-20.254 62.145,-31.998l-25.455,-16.51c-8.426,12.084 -20.013,20.084 -36.69,20.084c-16.677,-0 -28.615,-7.319 -36.163,-21.957l99.888,-39.998l-3.511,-8.17Zm-101.819,24.169c-0.878,-27.913 22.294,-42.211 38.972,-42.211c12.99,0 24.05,6.298 27.737,15.319l-66.709,26.892Zm-81.105,70.125l32.828,0l0,-212.757l-32.828,-0l0,212.757Zm-53.718,-124.25l-1.229,-0c-7.373,-8.51 -21.417,-16.17 -39.323,-16.17c-37.392,0 -71.625,31.829 -71.625,72.678c0,40.509 34.233,72.167 71.625,72.167c17.73,0 31.95,-7.659 39.323,-16.51l1.053,0l0,10.383c0,27.744 -15.272,42.551 -39.85,42.551c-20.012,0 -32.476,-13.956 -37.567,-25.701l-28.615,11.574c8.251,19.234 30.019,42.722 66.182,42.722c38.446,-0 70.923,-21.957 70.923,-75.401l-0,-130.037l-31.073,-0l0,11.744l0.176,-0Zm-37.743,100.081c-22.646,-0 -41.606,-18.382 -41.606,-43.573c0,-25.531 18.96,-44.083 41.606,-44.083c22.295,-0 39.85,18.723 39.85,44.083c0.175,25.191 -17.38,43.573 -39.85,43.573Zm428.167,-188.588l-78.471,-0l-0,212.757l32.828,0l-0,-80.677l45.818,-0c36.339,-0 71.976,-25.531 71.976,-66.04c-0.176,-40.509 -35.988,-66.04 -72.151,-66.04Zm0.702,102.464l-46.521,-0l0,-73.019l46.521,0c24.577,0 38.445,19.744 38.445,36.425c0,16.68 -13.868,36.594 -38.445,36.594Zm202.585,-30.467c-23.699,-0 -48.276,10.212 -58.458,32.509l29.141,11.744c6.144,-11.744 17.731,-15.659 29.844,-15.659c16.852,0 34.232,9.872 34.408,27.404l-0,2.212c-5.969,-3.234 -18.609,-8.17 -34.233,-8.17c-31.423,0 -63.198,16.681 -63.198,47.828c0,28.425 25.63,46.807 54.421,46.807c21.943,-0 34.232,-9.532 41.781,-20.765l1.053,-0l-0,16.339l31.599,0l0,-81.528c0.176,-37.616 -28.966,-58.721 -66.358,-58.721Zm-4.038,116.591c-10.708,-0 -25.63,-5.277 -25.63,-18.042c0,-16.34 18.608,-22.637 34.759,-22.637c14.395,-0 21.242,3.063 29.844,7.148c-2.507,18.964 -19.254,33.373 -38.973,33.531Zm185.733,-111.996l-37.568,92.252l-1.054,-0l-38.972,-92.252l-35.285,0l58.458,129.016l-33.355,71.657l34.233,0l90.057,-200.673l-36.514,0Zm-294.925,136.165l32.828,0l-0,-212.757l-32.828,-0l0,212.757Z" style="fill:#fff;fill-rule:nonzero;"/></g><g><path d="M421.842,352.628l-186.961,192.333l-0,0.17c5.918,21.314 26.003,36.239 48.769,36.239c9.026,-0 17.89,-2.346 25.664,-6.793l0.526,-0.341l210.31,-117.612l-98.308,-103.996Z" style="fill:#ea4335;fill-rule:nonzero;"/><path d="M610.909,319.949l-0.175,-0.17l-90.76,-51.062l-102.346,88.337l102.697,99.57l90.409,-50.551c16.298,-8.554 26.49,-25.139 26.49,-43.108c-0,-17.901 -10.113,-34.432 -26.315,-43.016Z" style="fill:#fbbc04;fill-rule:nonzero;"/><path d="M234.881,180.04c-1.054,4.085 -1.756,8.17 -1.756,12.595l-0,339.901c-0,4.425 0.527,8.51 1.756,12.595l193.28,-187.396l-193.28,-177.695Z" style="fill:#4285f4;fill-rule:nonzero;"/><path d="M423.246,362.5l96.728,-93.783l-210.134,-118.123c-7.866,-4.56 -16.862,-6.969 -26.027,-6.969c-22.804,-0 -42.937,14.912 -48.932,36.245l188.365,182.63Z" style="fill:#34a853;fill-rule:nonzero;"/></g></g></svg>